<svg width="50" height="27" viewBox="0 0 50 27" fill="none" xmlns="http://www.w3.org/2000/svg">
<path d="M50 0H0V26.4706H50V0ZM22.7273 15.4412H15.9091V22.0588H11.3636V15.4412H4.54545V11.0294H11.3636V4.41176H15.9091V11.0294H22.7273V15.4412ZM32.9545 19.8529C31.0682 19.8529 29.5455 18.375 29.5455 16.5441C29.5455 14.7132 31.0682 13.2353 32.9545 13.2353C34.8409 13.2353 36.3636 14.7132 36.3636 16.5441C36.3636 18.375 34.8409 19.8529 32.9545 19.8529ZM42.0455 13.2353C40.1591 13.2353 38.6364 11.7574 38.6364 9.92647C38.6364 8.09559 40.1591 6.61765 42.0455 6.61765C43.9318 6.61765 45.4545 8.09559 45.4545 9.92647C45.4545 11.7574 43.9318 13.2353 42.0455 13.2353Z" fill="black"/>
</svg>
