<svg width="48" height="12" viewBox="0 0 48 12" fill="none" xmlns="http://www.w3.org/2000/svg">
<path d="M8.894 7.01607L6.49 3.13207H4.762V8.71807H6.49V4.83407L8.894 8.71807H10.606V3.13207H8.88L8.894 7.01607ZM22.55 5.01407V4.45607H21.648V3.70407H19.966V4.45607H19.05V5.01407H19.966V8.71807H21.648V5.01407H22.55ZM11.568 8.70207H13.236V4.99807H11.568V8.70207ZM11.568 4.27607H13.25V3.13207H11.568V4.27607ZM40.894 4.74207C39.542 4.74207 38.446 5.67607 38.446 6.82007C38.446 7.96407 39.542 8.89807 40.894 8.89807C42.246 8.89807 43.344 7.96407 43.344 6.82007C43.344 5.67607 42.246 4.74207 40.894 4.74207ZM41.57 7.60407C41.57 8.19007 41.224 8.43207 40.894 8.43207C40.564 8.43207 40.202 8.19007 40.202 7.60407V6.03807C40.202 5.45007 40.548 5.21007 40.894 5.21007C41.224 5.21007 41.57 5.45007 41.57 6.03807V7.60407ZM36.252 5.18007C35.9666 4.99761 35.6428 4.88396 35.306 4.84807C34.104 4.74207 33.172 5.81207 33.172 6.79007C33.172 8.08607 34.164 8.55207 34.314 8.62807C34.884 8.88407 35.606 8.89807 36.236 8.49207V8.70207H37.89V3.13207H36.236C36.252 3.13207 36.252 4.32207 36.252 5.18007ZM36.268 6.83607V7.49807C36.268 8.07007 35.876 8.22007 35.606 8.22007C35.336 8.22007 34.944 8.07007 34.944 7.49807V6.17407C34.944 5.60007 35.336 5.45007 35.606 5.45007C35.862 5.45007 36.266 5.60007 36.266 6.17407L36.268 6.83607ZM17.156 4.83407C16.6577 4.84992 16.1824 5.04771 15.82 5.39007V4.99807H14.152V8.70207H15.82V6.26407C15.82 5.94807 16.164 5.58607 16.616 5.58607C17.066 5.58607 17.382 5.94807 17.382 6.26407V8.70207H19.05V6.68607C19.05 5.22407 17.788 4.80207 17.156 4.83407ZM30.752 4.83407C30.2533 4.84806 29.7774 5.04611 29.416 5.39007V4.99807H27.748V8.70207H29.416V6.26407C29.416 5.94807 29.762 5.58607 30.212 5.58607C30.662 5.58607 30.978 5.94807 30.978 6.26407V8.70207H32.646V6.68607C32.646 5.22407 31.384 4.80207 30.752 4.83407ZM27.252 6.86607C27.252 5.72207 26.14 4.75807 24.788 4.75807C23.422 4.75807 22.324 5.69207 22.324 6.83607C22.324 7.98007 23.422 8.91407 24.788 8.91407C25.916 8.91407 26.876 8.26607 27.162 7.39407H25.494V7.61807C25.494 8.29607 25.044 8.44607 24.804 8.44607C24.548 8.44607 24.098 8.29607 24.098 7.62007V6.85007L27.252 6.86607ZM24.218 5.55607C24.2793 5.4554 24.3653 5.37207 24.4679 5.31397C24.5704 5.25586 24.6861 5.22492 24.804 5.22407C25.028 5.22407 25.254 5.33007 25.39 5.55607C25.494 5.73607 25.494 5.96207 25.494 6.27807H24.098C24.098 5.96207 24.112 5.75207 24.218 5.55607ZM44.004 3.82407C44.004 3.64407 43.868 3.55407 43.598 3.55407H43.222V4.50207H43.448V4.11007H43.568L43.748 4.50207H44.004L43.794 4.08007C43.928 4.03607 44.004 3.94407 44.004 3.82407ZM43.568 3.96007H43.448V3.68807H43.552C43.688 3.68807 43.762 3.73407 43.762 3.82407C43.762 3.93007 43.704 3.96007 43.568 3.96007ZM43.582 3.17607C43.3551 3.17869 43.1383 3.27026 42.9782 3.43109C42.8181 3.59192 42.7276 3.80916 42.726 4.03607C42.726 4.50207 43.118 4.89407 43.584 4.89407C43.8118 4.89407 44.0303 4.80357 44.1914 4.64248C44.3525 4.48138 44.443 4.26289 44.443 4.03507C44.443 3.80725 44.3525 3.58876 44.1914 3.42767C44.0303 3.26657 43.8098 3.17607 43.582 3.17607ZM43.582 4.72807C43.3995 4.72547 43.2252 4.65167 43.0963 4.5224C42.9674 4.39313 42.8941 4.21861 42.892 4.03607C42.8936 3.85284 42.9669 3.67752 43.0963 3.54777C43.2257 3.41801 43.4008 3.34416 43.584 3.34207C43.7669 3.34468 43.9415 3.41876 44.0704 3.54846C44.1994 3.67816 44.2724 3.85318 44.274 4.03607C44.2719 4.21861 44.1986 4.39313 44.0697 4.5224C43.9408 4.65167 43.7645 4.72547 43.582 4.72807ZM41.706 7.04369e-05H6.264C2.508 -0.0159296 0 2.69607 0 5.93207C0 9.16807 2.508 11.8501 6.28 11.8501H41.72C45.492 11.8501 48 9.17007 48 5.93207C47.986 2.69607 45.462 7.04369e-05 41.706 7.04369e-05ZM41.69 10.4041H6.28C3.29 10.4201 1.472 8.40207 1.472 5.93207C1.472 3.46207 3.306 1.47607 6.28 1.46007H41.69C44.664 1.46007 46.498 3.46207 46.498 5.93207C46.498 8.40207 44.68 10.4041 41.69 10.4041Z" fill="black"/>
</svg>
