<svg width="38" height="38" viewBox="0 0 38 38" fill="none" xmlns="http://www.w3.org/2000/svg">
<path d="M17.1048 37.9207C14.0946 37.6093 11.2024 36.5833 8.66887 34.9282C6.53614 33.5389 6.05402 32.9665 6.05402 31.8265C6.05402 29.5347 8.57625 25.5186 12.8916 20.942C15.3402 18.3414 18.7554 15.2943 19.1235 15.3774C19.8408 15.5389 25.5787 21.132 27.7257 23.7635C31.1219 27.9268 32.6847 31.3373 31.8914 32.8573C31.2882 34.0115 27.5452 36.2701 24.7974 37.137C22.5316 37.8518 19.5558 38.1558 17.1048 37.9207ZM3.17317 29.442C1.39906 26.7251 0.503694 24.0508 0.0714477 20.1796C-0.071051 18.8995 -0.0188015 18.1704 0.39682 15.5484C0.914565 12.2781 2.77655 8.49473 5.01615 6.16725C5.96852 5.17688 6.05402 5.15314 7.21538 5.54263C8.6285 6.01763 10.1366 7.05787 12.4712 9.1716L13.8345 10.4042L13.0911 11.3186C9.63311 15.5627 5.98515 21.5785 4.60766 25.3001C3.85954 27.3236 3.55792 29.3542 3.88091 30.1997C4.09704 30.7697 3.89754 30.5559 3.16842 29.442H3.17317ZM34.2878 29.9052C34.4635 29.0502 34.2426 27.4827 33.7225 25.8986C32.5992 22.4715 28.8419 16.0947 25.3911 11.7603L24.3057 10.3947L25.479 9.31647C27.0132 7.90811 28.0796 7.06499 29.2314 6.34775C30.1363 5.78488 31.433 5.28376 31.9888 5.28376C32.3332 5.28376 33.542 6.53775 34.5181 7.90574C36.0696 10.12 37.1547 12.6264 37.7077 15.2729C38.0711 17.0019 38.102 20.7021 37.7647 22.4264C37.4481 23.9706 36.9705 25.4775 36.3398 26.9222C35.9146 27.8556 34.8578 29.6677 34.3923 30.2567C34.1548 30.5607 34.1524 30.5583 34.2878 29.9052ZM17.4207 4.63539C15.8294 3.8279 13.3737 2.96103 12.0152 2.72828C11.419 2.63709 10.8154 2.60289 10.2126 2.62616C9.09399 2.68316 9.14387 2.62616 10.9394 1.77591C12.3471 1.10048 13.8345 0.605733 15.3663 0.303428C17.2663 -0.0979439 20.843 -0.100319 22.7145 0.291553C24.7332 0.719049 27.1153 1.60254 28.4572 2.42903L28.8562 2.67366L27.9418 2.62616C26.1226 2.53591 23.4769 3.2674 20.6316 4.65201C19.7743 5.07001 19.0262 5.40251 18.9715 5.39301C18.4462 5.15623 17.9306 4.90357 17.4207 4.63539Z" fill="black"/>
</svg>
