<svg width="44" height="34" viewBox="0 0 44 34" fill="none" xmlns="http://www.w3.org/2000/svg">
<path d="M43.61 26.022C42.75 27.108 40.644 27.882 40.644 27.882L24.98 33.516V29.36L36.508 25.246C37.816 24.778 38.016 24.114 36.954 23.766C35.892 23.416 33.97 23.516 32.66 23.988L24.98 26.696V22.386L25.422 22.234C25.422 22.234 27.642 21.448 30.762 21.102C33.884 20.758 37.706 21.15 40.706 22.288C44.086 23.358 44.466 24.936 43.61 26.022ZM26.47 18.946V8.324C26.47 7.076 26.24 5.928 25.07 5.604C24.176 5.316 23.62 6.148 23.62 7.394V34L16.454 31.722V0C19.5 0.566 23.94 1.906 26.326 2.71C32.396 4.796 34.454 7.394 34.454 13.244C34.454 18.946 30.938 21.108 26.47 18.948M3.30395 28.928C-0.168047 27.948 -0.746047 25.908 0.835953 24.734C2.29795 23.65 4.78595 22.834 4.78595 22.834L15.062 19.174V23.346L7.66595 25.996C6.35995 26.464 6.15995 27.128 7.21995 27.476C8.28395 27.826 10.206 27.726 11.514 27.256L15.062 25.968V29.698L14.354 29.818C10.806 30.398 7.02795 30.156 3.30395 28.928Z" fill="black"/>
</svg>
