<svg width="12" height="12" viewBox="0 0 12 12" fill="none" xmlns="http://www.w3.org/2000/svg">
<path d="M6.00001 0C6.79566 0 7.55872 0.316071 8.12134 0.878681C8.68394 1.44129 9.00002 2.20435 9.00002 3.00001C9.00002 3.79566 8.68394 4.55872 8.12134 5.12133C7.55872 5.68394 6.79566 6.00001 6.00001 6.00001C5.20436 6.00001 4.4413 5.68394 3.87869 5.12133C3.31608 4.55872 3.00001 3.79566 3.00001 3.00001C3.00001 2.20435 3.31608 1.44129 3.87869 0.878681C4.4413 0.316071 5.20436 0 6.00001 0ZM6.00001 7.50001C9.31502 7.50001 12 8.84252 12 10.5V12H0V10.5C0 8.84252 2.685 7.50001 6.00001 7.50001Z" fill="#1ACE4D"/>
</svg>
