<svg width="15" height="15" viewBox="0 0 15 15" fill="none" xmlns="http://www.w3.org/2000/svg">
<path d="M13.5 7.49999C13.4998 6.16265 13.0529 4.8637 12.2302 3.80939C11.4074 2.75508 10.256 2.00586 8.95883 1.6807C7.66163 1.35554 6.29297 1.47308 5.0702 2.01465C3.84743 2.55623 2.84065 3.49079 2.20971 4.66994C1.57878 5.84909 1.35987 7.20522 1.58774 8.523C1.81562 9.84078 2.47721 11.0447 3.46747 11.9435C4.45774 12.8423 5.71989 13.3845 7.05352 13.484C8.38715 13.5835 9.7158 13.2346 10.8285 12.4927L11.661 13.7407C10.4296 14.564 8.9812 15.0024 7.49999 15C3.35775 15 0 11.6422 0 7.49999C0 3.35775 3.35775 0 7.49999 0C11.6422 0 15 3.35775 15 7.49999V8.62499C15.0001 9.18655 14.82 9.73334 14.4864 10.185C14.1527 10.6367 13.683 10.9695 13.1462 11.1345C12.6095 11.2995 12.0339 11.288 11.5042 11.1017C10.9744 10.9154 10.5183 10.5641 10.203 10.0995C9.70242 10.62 9.06221 10.9849 8.35927 11.1503C7.65634 11.3158 6.92059 11.2747 6.24041 11.0322C5.56024 10.7896 4.96457 10.3558 4.52497 9.78285C4.08538 9.20992 3.82056 8.52225 3.76233 7.80247C3.70409 7.08268 3.85493 6.36138 4.19671 5.72525C4.53849 5.08911 5.05668 4.56518 5.68902 4.21642C6.32136 3.86766 7.04095 3.70889 7.76133 3.75919C8.48172 3.8095 9.17226 4.06673 9.74999 4.49999H11.25V8.62499C11.25 8.92336 11.3685 9.2095 11.5795 9.42048C11.7905 9.63146 12.0766 9.74999 12.375 9.74999C12.6734 9.74999 12.9595 9.63146 13.1705 9.42048C13.3815 9.2095 13.5 8.92336 13.5 8.62499V7.49999ZM7.49999 5.24999C6.90325 5.24999 6.33096 5.48705 5.909 5.909C5.48705 6.33096 5.24999 6.90325 5.24999 7.49999C5.24999 8.09673 5.48705 8.66902 5.909 9.09098C6.33096 9.51293 6.90325 9.74999 7.49999 9.74999C8.09673 9.74999 8.66902 9.51293 9.09098 9.09098C9.51293 8.66902 9.74999 8.09673 9.74999 7.49999C9.74999 6.90325 9.51293 6.33096 9.09098 5.909C8.66902 5.48705 8.09673 5.24999 7.49999 5.24999Z" fill="#1ACE4D"/>
</svg>
